HIERARCHY
ROOT hip
{
  OFFSET 0 0 0
  CHANNELS 6 Xposition Yposition Zposition Zrotation Yrotation Xrotation
  JOINT abdomen
  {
    OFFSET 0 20.6881 -0.73152
    CHANNELS 3 Zrotation Xrotation Yrotation
    JOINT chest
    {
      OFFSET 0 11.7043 -0.48768
      CHANNELS 3 Zrotation Xrotation Yrotation
      JOINT neck
      {
        OFFSET 0 22.1894 -2.19456
        CHANNELS 3 Zrotation Xrotation Yrotation
        JOINT head
        {
          OFFSET -0.24384 7.07133 1.2192
          CHANNELS 3 Zrotation Xrotation Yrotation
          JOINT leftEye
          {
            OFFSET 4.14528 8.04674 8.04672
            CHANNELS 3 Zrotation Xrotation Yrotation
            End Site
            {
              OFFSET 1 0 0
            }
          }
          JOINT rightEye
          {
            OFFSET -3.6576 8.04674 8.04672
            CHANNELS 3 Zrotation Xrotation Yrotation
            End Site
            {
              OFFSET 1 0 0
            }
          }
        }
      }
      JOINT rCollar
      {
        OFFSET -2.68224 19.2634 -4.8768
        CHANNELS 3 Zrotation Xrotation Yrotation
        JOINT rShldr
        {
          OFFSET -8.77824 -1.95073 1.46304
          CHANNELS 3 Zrotation Xrotation Yrotation
          JOINT rForeArm
          {
            OFFSET -28.1742 -1.7115 0.48768
            CHANNELS 3 Zrotation Xrotation Yrotation
            JOINT rHand
            {
              OFFSET -22.5879 0.773209 7.07136
              CHANNELS 3 Zrotation Xrotation Yrotation
              JOINT rThumb1
              {
                OFFSET -1.2192 -0.487915 3.41376
                CHANNELS 3 Zrotation Xrotation Yrotation
                JOINT rThumb2
                {
                  OFFSET -3.37035 -0.52449 3.41376
                  CHANNELS 3 Zrotation Xrotation Yrotation
                  End Site
                  {
                    OFFSET -1.78271 -1.18214 1.43049
                  }
                }
              }
              JOINT rIndex1
              {
                OFFSET -7.75947 0.938293 5.60832
                CHANNELS 3 Zrotation Xrotation Yrotation
                JOINT rIndex2
                {
                  OFFSET -2.54057 -0.884171 1.56538
                  CHANNELS 3 Zrotation Xrotation Yrotation
                  End Site
                  {
                    OFFSET -1.62519 -0.234802 1.16502
                  }
                }
              }
              JOINT rMid1
              {
                OFFSET -8.24714 1.18213 3.41376
                CHANNELS 3 Zrotation Xrotation Yrotation
                JOINT rMid2
                {
                  OFFSET -3.10165 -0.590103 1.0647
                  CHANNELS 3 Zrotation Xrotation Yrotation
                  End Site
                  {
                    OFFSET -2.48547 -0.328903 0.83742
                  }
                }
              }
              JOINT rRing1
              {
                OFFSET -8.82822 0.546677 1.51678
                CHANNELS 3 Zrotation Xrotation Yrotation
                JOINT rRing2
                {
                  OFFSET -2.60934 -0.819778 -0.0198488
                  CHANNELS 3 Zrotation Xrotation Yrotation
                  End Site
                  {
                    OFFSET -2.33842 -0.294052 0.168128
                  }
                }
              }
              JOINT rPinky1
              {
                OFFSET -8.27202 -0.0477905 -0.4584
                CHANNELS 3 Zrotation Xrotation Yrotation
                JOINT rPinky2
                {
                  OFFSET -1.82734 -0.647385 -0.700984
                  CHANNELS 3 Zrotation Xrotation Yrotation
                  End Site
                  {
                    OFFSET -1.69225 -0.51767 -0.607171
                  }
                }
              }
            }
          }
        }
      }
      JOINT lCollar
      {
        OFFSET 2.68224 19.2634 -4.8768
        CHANNELS 3 Zrotation Xrotation Yrotation
        JOINT lShldr
        {
          OFFSET 8.77824 -1.95073 1.46304
          CHANNELS 3 Zrotation Xrotation Yrotation
          JOINT lForeArm
          {
            OFFSET 28.1742 -1.7115 0.48768
            CHANNELS 3 Zrotation Xrotation Yrotation
            JOINT lHand
            {
              OFFSET 22.5879 0.773209 7.07136
              CHANNELS 3 Zrotation Xrotation Yrotation
              JOINT lThumb1
              {
                OFFSET 1.2192 -0.487915 3.41376
                CHANNELS 3 Zrotation Xrotation Yrotation
                JOINT lThumb2
                {
                  OFFSET 3.37035 -0.52449 3.41376
                  CHANNELS 3 Zrotation Xrotation Yrotation
                  End Site
                  {
                    OFFSET 1.78271 -1.18214 1.43049
                  }
                }
              }
              JOINT lIndex1
              {
                OFFSET 7.75947 0.938293 5.60832
                CHANNELS 3 Zrotation Xrotation Yrotation
                JOINT lIndex2
                {
                  OFFSET 2.54057 -0.884171 1.56538
                  CHANNELS 3 Zrotation Xrotation Yrotation
                  End Site
                  {
                    OFFSET 1.62519 -0.234802 1.16502
                  }
                }
              }
              JOINT lMid1
              {
                OFFSET 8.24714 1.18213 3.41376
                CHANNELS 3 Zrotation Xrotation Yrotation
                JOINT lMid2
                {
                  OFFSET 3.10165 -0.590103 1.0647
                  CHANNELS 3 Zrotation Xrotation Yrotation
                  End Site
                  {
                    OFFSET 2.48547 -0.328903 0.83742
                  }
                }
              }
              JOINT lRing1
              {
                OFFSET 8.82822 0.546677 1.51678
                CHANNELS 3 Zrotation Xrotation Yrotation
                JOINT lRing2
                {
                  OFFSET 2.60934 -0.819778 -0.0198488
                  CHANNELS 3 Zrotation Xrotation Yrotation
                  End Site
                  {
                    OFFSET 2.33842 -0.294052 0.168128
                  }
                }
              }
              JOINT lPinky1
              {
                OFFSET 8.27202 -0.0477905 -0.4584
                CHANNELS 3 Zrotation Xrotation Yrotation
                JOINT lPinky2
                {
                  OFFSET 1.82734 -0.647385 -0.700984
                  CHANNELS 3 Zrotation Xrotation Yrotation
                  End Site
                  {
                    OFFSET 1.69225 -0.51767 -0.607171
                  }
                }
              }
            }
          }
        }
      }
    }
  }
  JOINT rButtock
  {
    OFFSET -8.77824 4.35084 1.2192
    CHANNELS 3 Zrotation Xrotation Yrotation
    JOINT rThigh
    {
      OFFSET 0 -1.70687 -2.19456
      CHANNELS 3 Zrotation Xrotation Yrotation
      JOINT rShin
      {
        OFFSET 0 -36.8199 0.73152
        CHANNELS 3 Zrotation Xrotation Yrotation
        JOINT rFoot
        {
          OFFSET 0.73152 -45.1104 -5.12064
          CHANNELS 3 Zrotation Xrotation Yrotation
          End Site
          {
            OFFSET -1.1221 -3.69964 12.103
          }
        }
      }
    }
  }
  JOINT lButtock
  {
    OFFSET 8.77824 4.35084 1.2192
    CHANNELS 3 Zrotation Xrotation Yrotation
    JOINT lThigh
    {
      OFFSET 0 -1.70687 -2.19456
      CHANNELS 3 Zrotation Xrotation Yrotation
      JOINT lShin
      {
        OFFSET 0 -36.8199 0.73152
        CHANNELS 3 Zrotation Xrotation Yrotation
        JOINT lFoot
        {
          OFFSET -0.73152 -45.1104 -5.12064
          CHANNELS 3 Zrotation Xrotation Yrotation
          End Site
          {
            OFFSET 1.1221 -3.69964 12.103
          }
        }
      }
    }
  }
}
MOTION
Frames:	4
Frame Time:	0.03333
1.0842240415513515 62.629616260528564 10.417184419929981 -6.879710602816282 5.492389472473149 2.375263810999284 -2.4607421343581124 15.050304760650171 3.8270109141319737 2.9567935874535745 -9.936636897936358 1.2028750734581122 -4.929241229179244 15.575860496525973 -3.303382999149409 8.608935208197797 -25.37519095535121 -4.819300369864603 0.027820000819696624 0.00241244415918966 -0.07099616120385953 -0.07300368987110115 0.11358644610370873 -0.07493667342685442 0.037392617663175275 0.011838772224468391 0.01708518460025799 49.40694858775803 31.01066051121826 16.52974081034786 -24.50787645907007 -30.46994175538503 68.32703362646232 -5.015360096216173 -12.348129099510448 -5.459353981891913 -0.049068345801636055 0.019730262067731374 0.0461191448232186 -0.04500454332803714 0.04282544617853862 -0.02953928749983577 0.06240957288052214 -0.05611469978670913 -0.056353416232222404 7.694966251017235 5.593547135401977 0.40352581525620795 0.09714127157302209 -0.038017900137348785 0.023538219262039098 3.0486831105655177 1.0937794500532603 0.1267562781231098 -0.044267629949616236 0.008641656723520625 0.07627432328711911 10.424454984874194 0.6231416367555352 0.05465317937656524 0.1362091265322752 0.06431666308241019 -0.20142115804576533 2.2747567235889 -0.7957766957400173 -0.17208261407450445 -0.19108083861174782 0.12398025979274918 -0.0403799716514096 -58.85565128554067 32.24411071305252 -27.578425566489734 23.61710026298993 -28.547977749362214 -64.68496502514726 5.25408630676552 -14.306773782697169 4.162087188208106 0.0681477321961262 -0.04291898775365606 0.043986364894029226 0.016839724676960655 -0.07451254802786572 0.022615076507029562 -0.0008635386823305965 0.09584833810747984 0.012846145085765936 -7.86486549907401 5.6028946761679626 -0.3159907511835592 0.014478080049722966 0.053210668770263675 0.04933899204749781 -2.8418910225937424 0.9986302191599283 -0.019025732056908527 0.1020096223060809 -0.015638465156684662 -0.007829104336127116 -10.307049155683552 0.8070897301613799 -0.035661591595400166 -0.0497291132429819 0.11769704604529281 0.07845566159243904 -2.2965714940242745 -0.6888913855836051 0.33779244820997545 -0.10405665134467489 0.04829850877698157 -0.09045811823314973 -32.68844183931853 -36.782887529741885 -28.820693542542482 -5.464335751117791 63.724018880628996 6.769425245835379 -4.712555612194705 -10.213963922580033 -10.616678706233154 -0.10792027057865425 -0.05921172366784712 0.09974690870010262 38.66285270255829 -34.51374159311274 31.52612122750078 5.519373415449754 64.07242000000217 -6.570241134825351 5.116891712002059 -10.059415524682862 14.258745600000932
1.0879597626626492 62.534910440444946 10.34428235143423 -6.844443774810568 5.55066763467946 2.388155793057683 -2.4780342523458807 15.014717767527113 3.8438528799647558 2.8754908575551505 -9.917865830549871 1.194991327608625 -4.915194091377467 15.569692835705451 -3.343779726108626 8.630288940864197 -25.337915197955866 -4.8531601789012955 0.01776121324553058 0.008879539405707475 -0.05671503606215623 -0.04107191517105685 0.07090325995897678 -0.05017531669485414 0.0249494003775872 0.008561562083331647 0.00369673316656362 49.298386145995266 30.970577546074036 16.54264133014272 -24.46576322019506 -30.417537128978104 68.20569531585706 -4.954833947999282 -12.20827158474433 -5.4330389705671465 -0.025373138910392445 -0.0019196766930636522 0.06597856016526536 -0.03433472062741941 0.024994490298279864 -0.020309567497032915 0.04494990181467704 -0.02432849349335073 -0.03659559995407958 7.726337309875104 5.577115407806218 0.40049566586395524 0.06045400434378286 -0.023821672112594627 0.01632660671556345 2.9906632148871983 1.0788564472121345 0.10421710075921069 -0.03438029079578809 0.008789573007733713 0.06479448283962018 10.419048890146128 0.6535163417682281 0.03660824647621468 0.09397059637468168 0.05736972036627253 -0.14979922862904363 2.2703348164315513 -0.8032875559495042 -0.1976334979858759 -0.13793129469847046 0.07455167487324785 -0.025685033095538733 -58.82604241548866 32.26750411095981 -27.449321330798153 23.606264167871704 -28.569513335815266 -64.61032471789736 5.22098208740576 -14.324624482092997 4.175308300007135 0.0533597856736668 -0.018257735981678774 0.03082656471497161 0.025564837774402376 -0.05958151437837984 0.013906051706734398 -0.004917549439424063 0.05940762469902219 0.005345103273210994 -7.869150589004547 5.603811202177213 -0.3431268259517554 0.028440053930286844 0.04798562741605681 0.038827544358259754 -2.8592345804436974 0.9942567636570045 -0.0544123018165099 0.09199496415725548 -0.008392915107770512 -0.003964497926369276 -10.334591893511629 0.8040434657915542 -0.033705436089279096 -0.03266799438737763 0.0898048213112086 0.05372226594735349 -2.294973870088726 -0.6873025128279309 0.2954153932782776 -0.07606642940425686 0.02482122760894368 -0.07034267751893328 -32.75093124003497 -36.757803660015014 -28.81290712688867 -5.458950146957236 63.65283464909912 6.701700505120117 -4.705357873469981 -10.202207459471149 -10.570798618030887 -0.07902755653329538 -0.04795984078389737 0.08520799727808423 38.65559221147056 -34.43742788951619 31.538774152938228 5.464486015279531 63.98185169160781 -6.5937557685904125 5.126728038180524 -10.09737173967427 14.234527456751358
1.1152864433825016 62.51041889190674 10.273918882012367 -6.853935176435947 5.510536431324227 2.400402322239516 -2.4639203067562843 15.00773048400619 3.8353010562370766 2.8695306637306683 -9.913828334976747 1.2135298483982147 -4.91267631289467 15.5695903828679 -3.3295056979603572 8.633433389203342 -25.332621801349106 -4.846236074630195 0.0289316141071162 -0.004899086584323873 -0.045512511967130395 -0.04257493031442989 0.08188881882614893 -0.05832319876615044 0.012755591718410375 0.001023594560576325 0.0022644211532707897 49.31630173218821 30.97928262217122 16.535838461729387 -24.449379303923493 -30.397989127573528 68.19286822059577 -4.964097818947935 -12.230964888261695 -5.43696163358485 -0.029194149503338564 0.02184852784493447 0.04670888896936689 -0.016770889176731623 0.03891542968297077 -0.01850650427785533 0.020694726133198164 -0.028020637626565748 -0.049256849684579156 7.718752384801805 5.586550887257768 0.4132969344724401 0.06921158752020859 -0.04173576420165713 0.006968447139852618 3.011640860262423 1.0483499408928014 0.09067739798799755 -0.023232888461798374 0.00929297929390481 0.0460103954050273 10.414920040792856 0.6612931524685224 0.04620935801513698 0.09417891714436707 0.04590471423587722 -0.13899995249931302 2.252676002662718 -0.780832455279441 -0.17608425115448567 -0.11435006658900145 0.1060326570880713 -0.0043447473640685795 -58.790552752561275 32.25419548736205 -27.466492426371566 23.594813355728178 -28.54126708850268 -64.59460162242799 5.224326318778128 -14.321989736620665 4.201574219347242 0.04700173333003118 -0.04643792255838779 0.03136284128652339 -0.007562673597643728 -0.07649527723872639 0.03165664614253973 0.010638686642955994 0.07515387877854612 0.009968287567663376 -7.858926649590684 5.604607346102343 -0.3511023524682147 0.027160994286496175 0.026330939539354507 0.014793656133718712 -2.856605597943477 0.9821881395587094 -0.05197958053322176 0.08900974460313679 -0.024591349054690438 -0.0025622814341068148 -10.346136620756242 0.790053317380664 -0.04144756223519433 -0.04002869715682996 0.07284394081775955 0.05375577656296887 -2.2828916923337967 -0.6936879392890994 0.2872082806602726 -0.05739813502043684 0.05003060206181449 -0.07284290028112818 -32.75538452337383 -36.75411194276862 -28.817432127213802 -5.489194224602053 63.61814411830463 6.699728714884099 -4.706150602300526 -10.206651351299888 -10.578098382706338 -0.07774956410656253 -0.03794411541801414 0.0916819493941985 38.64992998464862 -34.44386534280892 31.53940253034187 5.47822323324772 63.97541765340965 -6.588639103128427 5.122335799657382 -10.10049655121955 14.234951782253546
1.1875891126692295 62.54488825798035 10.20337175577879 -6.888287612866526 5.424324076073034 2.4043725831379974 -2.4322094459872075 15.026252249487971 3.812042981452714 2.92191736089102 -9.926757029301935 1.2408992701761021 -4.919772025668667 15.575022090805353 -3.2850332690573465 8.620800954333403 -25.35442376517979 -4.812604650043875 0.05125715462636069 -0.02681550944445518 -0.04468098979653423 -0.06755656064716309 0.12836062552612232 -0.08493212166863918 0.009417016596449298 -0.0030605383979739557 0.013028479120093542 49.418536003684956 31.015031832287065 16.519582611504756 -24.461400436862714 -30.415747619415562 68.26828716941105 -5.017317799187028 -12.357980793614546 -5.460612444246488 -0.0529001352868661 0.06209280284744296 0.009804523110141742 -0.0016646451667790452 0.06584099588651307 -0.023960943938639418 0.006357838900224057 -0.051683828006074926 -0.07858418787673296 7.683539344535804 5.610350254533854 0.42888449337546697 0.10913196214567038 -0.07252316205060695 0.0078073331081477005 3.078485787235222 1.0263025171388234 0.0928742109406558 -0.020227925392110106 0.00739749507752049 0.03543336722758654 10.414248974706902 0.6464569143741968 0.07211349077264502 0.12416857024260056 0.0357198349663304 -0.1668385228958156 2.2362841889849223 -0.7505020397746474 -0.13065239411649962 -0.12754108286700014 0.17658995195733107 0.006203519313664081 -58.77338165698786 32.22036897549756 -27.583418434773016 23.589311638351735 -28.488213594124602 -64.63078796465072 5.253717903437162 -14.302979612613226 4.220633435339339 0.054436447602442956 -0.0948760233265315 0.040833272096716305 -0.05405307655484954 -0.10235677467477473 0.0563139492114031 0.030715867625649804 0.11858320972924907 0.01944997751781623 -7.8404996529836355 5.604911716407232 -0.3382201888067475 0.013361557563837443 0.007135653372385704 -0.007449014980986484 -2.842054306803588 0.9710592000798198 -0.02076977817278897 0.0927238734077428 -0.04636129637363671 -0.003155333953134328 -10.339349120268542 0.7756505828552227 -0.05144450458086002 -0.06037294920824185 0.07624689580873328 0.0725861812178709 -2.2728688166136264 -0.7036978483220176 0.31447994535566415 -0.061173201919044046 0.09541891664384172 -0.0886817354404175 -32.71273682219626 -36.76705856634038 -28.827697901536332 -5.525750250813607 63.629120232300835 6.749734237345055 -4.71163310976993 -10.220664338155816 -10.619667767768682 -0.09473816556308831 -0.03383372891984162 0.1111240828666398 38.64910353175905 -34.50452766792239 31.5320156807545 5.539561747089019 64.03475150672955 -6.567406606319796 5.1099590699944955 -10.074057742716077 14.251989689138142
